<svg width="291" height="60" viewBox="0 0 291 60" xmlns="http://www.w3.org/2000/svg" xmlns:xlink="http://www.w3.org/1999/xlink"><defs><path id="a" d="M237.351067 16.2832588L237.351067 0.69723267 0.0602718527 0.69723267 0.0602718527 16.2832588 237.351067 16.2832588z"/></defs><g fill="none" fill-rule="evenodd"><path d="M0.0192818851,46.4991826 L0.0192818851,49.1493555 C0.296379174,49.1442541 0.574753408,49.1417034 0.850573751,49.1417034 C5.87152554,49.1417034 10.6332573,50.042099 14.9071957,51.6541386 L14.9161343,30.3303226 C14.9161343,26.3614401 16.4152689,24.1971748 18.543938,22.7585824 C20.6074827,24.2214064 22.2151578,26.4022512 22.2151578,30.3303226 L22.1704647,55.3896325 C23.9722355,56.6063143 25.616942,57.9747626 27.0752144,59.4656442 L27.1096919,30.218092 C27.1096919,23.5543995 23.5572281,19.857166 19.6689274,17.5615399 C19.2960592,17.3753391 18.9116984,17.1304723 18.565646,17.0144157 C18.2310862,17.1470519 17.8582179,17.3281512 17.4585338,17.5666413 C13.6877122,19.706675 10.0203232,23.570979 10.0203232,30.218092 L10.002446,46.4991826 L4.92275464,46.4991826 L4.90232351,30.5637112 C4.90232351,17.3613103 10.6971046,10.3928096 18.4519978,5.98775816 C25.7293133,10.3928096 32.005503,17.363861 32.005503,30.5637112 L32.0259341,46.4991826 L36.92813,46.4991826 L36.9089758,30.2729319 C36.9089758,14.5899794 28.7352442,6.01836651 19.3343675,0.473154053 C19.3343675,0.473154053 18.5962927,0.0357097398 18.4519978,0 C18.3128107,0.0331590441 17.5772898,0.473154053 17.5772898,0.473154053 C8.54289664,5.58984963 0.000127694603,14.5899794 0.000127694603,30.2729319 L0.0192818851,46.4991826 Z" fill="#B71234"/><g transform="translate(53.631733 30.132644)"><mask id="b" fill="#fff"><use xlink:href="#a"/></mask><path d="M7.49209775,1.87437874 C7.41548099,2.93546815 7.37589566,4.05522356 7.37589566,5.22981893 L7.37589566,11.272417 C7.37589566,13.51958 7.43335823,14.7617688 7.54700643,14.9887807 C7.66065463,15.2196186 8.06544652,15.3356753 8.75755127,15.3356753 L9.55436559,15.3356753 L9.55436559,16.0052329 C8.30168154,15.958045 7.23798549,15.9312627 6.3671083,15.9312627 C5.49240027,15.9312627 4.43508895,15.958045 3.20666687,16.0052329 L3.20666687,15.3356753 L4.0979752,15.3356753 C4.56278356,15.3356753 4.86669671,15.2731833 5.01099161,15.1545759 C5.15145568,15.0257658 5.23828801,14.7898264 5.2740425,14.4250769 C5.34427453,13.5973762 5.37875207,12.52991 5.37875207,11.2188524 L5.37875207,5.16095015 C5.37875207,3.96594921 5.35704399,2.8729761 5.3046892,1.87437874 L4.22311591,1.87437874 C2.4749768,1.87437874 1.51088254,1.91646521 1.33466399,1.99936283 C1.15716849,2.07460835 1.03968946,2.39982205 0.984780779,2.94694628 L0.832824201,4.36895913 L0.166258373,4.36895913 L0.189243402,3.10891546 C0.189243402,2.59495027 0.141996399,1.868002 0.0602718527,0.912766457 C3.88344827,0.959954327 6.12959634,0.984185936 6.8025469,0.984185936 L12.6752217,0.912766457 C12.5411424,2.10776739 12.4645256,3.25813115 12.4440945,4.36895913 L11.7839134,4.36895913 L11.6804807,2.98010532 C11.6370646,2.49547314 11.5732173,2.21234592 11.4991544,2.12562226 C11.4212607,2.03889861 11.2450421,1.97895726 10.9756065,1.96110239 C10.1941156,1.90371174 9.31302279,1.87437874 8.32211267,1.87437874 L7.49209775,1.87437874 Z M24.167736,10.916595 L18.0281795,10.916595 L17.3079819,12.6191844 C16.832958,13.7491426 16.595446,14.4454825 16.595446,14.696726 C16.595446,14.8612459 16.64397,14.9747519 16.7295253,15.0525481 C16.8150807,15.1175908 17.0423771,15.1775322 17.399922,15.2196186 L18.4202019,15.3356753 L18.4202019,16.0052329 C17.7434205,15.958045 16.9785298,15.9312627 16.1255299,15.9312627 C15.1078039,15.9312627 14.2139417,15.958045 13.4388354,16.0052329 L13.4388354,15.3356753 L13.7606258,15.3241972 C14.2573578,15.312719 14.5753174,15.2617051 14.7196123,15.1711554 C14.8639072,15.0818811 15.0196946,14.8637966 15.1856976,14.5232787 C15.6837065,13.5017251 16.1995927,12.4010999 16.7269714,11.2188524 L19.6422392,4.61510127 C20.4224533,2.86022262 20.9574936,1.58742547 21.2396987,0.792883759 L21.9598963,0.792883759 L27.3332852,13.2798146 C27.6946609,14.1291962 27.929619,14.6367847 28.0560366,14.810232 C28.1747926,14.98623 28.3127028,15.1061127 28.4697671,15.1800829 C28.6255546,15.2578791 28.9754378,15.3063423 29.5206937,15.3356753 L29.5206937,16.0052329 C28.6012926,15.958045 27.7227537,15.9312627 26.8863541,15.9312627 C26.107417,15.9312627 25.0692599,15.958045 23.7757135,16.0052329 L23.7757135,15.3356753 L24.8279171,15.2706326 C25.2007853,15.2464009 25.4242509,15.2043145 25.4944829,15.1545759 C25.6030233,15.0767797 25.6553781,14.9747519 25.6553781,14.8586952 C25.6553781,14.7298851 25.5468377,14.3982946 25.3386955,13.8664746 L24.167736,10.916595 Z M18.4202019,10.0442571 L23.7757135,10.0442571 L21.1005116,3.66114107 L18.4202019,10.0442571 Z M34.6616784,14.9632737 C35.3550601,15.0015342 36.0305646,15.0168383 36.6907457,15.0168383 C38.0187696,15.0168383 39.0607575,14.9811286 39.8116018,14.9122598 C40.3364266,14.8523185 40.8778517,14.7528413 41.438431,14.6036256 L42.0730732,12.1090452 L42.765178,12.1090452 C42.5876825,13.4443344 42.4497723,14.6941753 42.3476166,15.8534665 C41.7104205,15.9631464 40.8420972,16.0116097 39.734985,16.0116097 L34.6821096,15.9312627 C34.0027743,15.9312627 32.945463,15.9669725 31.5050679,16.0473194 L31.5050679,15.4823403 C32.0720319,15.2349228 32.4065918,14.9683751 32.5113013,14.6877986 C32.6121801,14.4072221 32.6632579,13.2861913 32.6632579,11.3285324 L32.6632579,5.49254059 C32.6632579,3.37163711 32.6121801,2.18811431 32.5113013,1.94324752 C32.4065918,1.70093143 32.1192789,1.57849803 31.642978,1.57849803 L30.484788,1.57849803 L30.484788,0.912766457 C32.1716337,0.959954327 33.2915154,0.984185936 33.8406022,0.984185936 C34.578677,0.984185936 35.5772488,0.959954327 36.8375945,0.912766457 L36.8375945,1.57849803 L35.5185092,1.57849803 C35.1481949,1.57849803 34.9068521,1.6894533 34.8085272,1.90116104 C34.7063716,2.11924552 34.6616784,3.01581506 34.6616784,4.59086966 L34.6616784,11.3463872 L34.694879,14.340904 L34.6616784,14.9632737 Z M47.945748,14.9632737 C48.6391297,15.0015342 49.3146342,15.0168383 49.9722614,15.0168383 C51.3079469,15.0168383 52.3486579,14.9811286 53.0969483,14.9122598 C53.6204962,14.8523185 54.1644752,14.7528413 54.7199467,14.6036256 L55.3596967,12.1090452 L56.0492475,12.1090452 C55.8691981,13.4443344 55.731288,14.6941753 55.635517,15.8534665 C54.9983209,15.9631464 54.1261668,16.0116097 53.0216085,16.0116097 L47.9674561,15.9312627 C47.2881208,15.9312627 46.2269786,15.9669725 44.7929683,16.0473194 L44.7929683,15.4823403 C45.3599323,15.2349228 45.6919383,14.9683751 45.7979248,14.6877986 C45.9000805,14.4072221 45.9486044,13.2861913 45.9486044,11.3285324 L45.9486044,5.49254059 C45.9486044,3.37163711 45.9000805,2.18811431 45.7979248,1.94324752 C45.6919383,1.70093143 45.4059024,1.57849803 44.9283245,1.57849803 L43.7688575,1.57849803 L43.7688575,0.912766457 C45.4557032,0.959954327 46.5755849,0.984185936 47.1285025,0.984185936 C47.8640235,0.984185936 48.8638722,0.959954327 50.121664,0.912766457 L50.121664,1.57849803 L48.8025788,1.57849803 C48.4335414,1.57849803 48.1947525,1.6894533 48.0951507,1.90116104 C47.9955489,2.11924552 47.945748,3.01581506 47.945748,4.59086966 L47.945748,11.3463872 L47.9763947,14.340904 L47.945748,14.9632737 Z M57.1640214,15.3356753 L57.8331411,15.3356753 C58.4907683,15.3356753 58.8853447,15.1775322 59.0143162,14.8586952 C59.1458416,14.5385829 59.2109659,13.0170929 59.2109659,10.2865732 L59.2109659,6.68881687 C59.2109659,3.86137069 59.159888,2.30162027 59.042409,2.014667 C58.9287608,1.72133699 58.5903701,1.57849803 58.0234061,1.57849803 L57.1640214,1.57849803 L57.1640214,0.912766457 C58.3388118,0.959954327 59.4995557,0.984185936 60.6475302,0.984185936 C61.6014089,0.984185936 62.4671783,0.959954327 63.2473923,0.912766457 L63.2473923,1.57849803 L62.4314238,1.57849803 C61.928307,1.57849803 61.6129014,1.64099008 61.4839298,1.76087278 C61.3587891,1.88075548 61.2821724,2.18556361 61.2642951,2.67274649 C61.2272637,3.43157846 61.2093864,4.7757951 61.2093864,6.71177313 L61.2093864,10.3694708 C61.2093864,13.1254975 61.2706798,14.6367847 61.3932667,14.9173612 C61.5120226,15.1928363 61.8951064,15.3356753 62.5476259,15.3356753 L63.2473923,15.3356753 L63.2473923,16.0052329 C62.379069,15.958045 61.4264673,15.9312627 60.3998026,15.9312627 C59.2045812,15.9312627 58.1255618,15.958045 57.1640214,16.0052329 L57.1640214,15.3356753 Z M67.3463891,3.31169576 L67.3463891,10.6360185 C67.3463891,12.3067242 67.3783127,13.468566 67.4396061,14.1291962 C67.4919609,14.6316833 67.5749624,14.9326654 67.6911645,15.0436206 C67.8086435,15.1545759 68.1470342,15.2349228 68.7088905,15.2821107 L69.383118,15.3356753 L69.383118,16.0052329 C68.6118426,15.958045 67.915907,15.9312627 67.2927573,15.9312627 C66.8637035,15.9312627 65.8715164,15.958045 64.3213039,16.0052329 L64.3213039,15.3356753 L65.0874715,15.3356753 C65.5471721,15.3356753 65.8472544,15.2706326 65.9889954,15.1443731 C66.1294595,15.0168383 66.2150149,14.7681455 66.2546002,14.3919179 C66.3337708,13.611405 66.3682484,12.5541416 66.3682484,11.2188524 L66.3682484,5.95039047 C66.3682484,4.96072053 66.3554789,3.97742734 66.3337708,3.01581506 C66.3261092,2.60005166 66.2673697,2.31947514 66.1715987,2.16770874 C66.0796586,2.0172177 65.9366406,1.88075548 65.7527604,1.76087278 C65.5688802,1.64099008 65.3083832,1.57849803 64.9776542,1.57849803 L64.3213039,1.57849803 L64.3213039,0.912766457 C65.2202739,0.959954327 65.904717,0.984185936 66.3810179,0.984185936 C66.8892424,0.984185936 67.4485447,0.959954327 68.0589249,0.912766457 C68.7574144,1.76724952 69.4214264,2.60005166 70.0356374,3.40734685 C70.6549562,4.21974343 71.3010909,5.03341536 71.9651028,5.85473938 L75.5954604,10.3069787 C76.9081609,11.9088156 77.8505471,13.0170929 78.4302806,13.6381873 L78.4302806,6.82910514 C78.4302806,3.97742734 78.3817566,2.42150296 78.279601,2.15878131 C78.1799992,1.8947843 77.7675456,1.72133699 77.0550097,1.65629425 L76.2569185,1.57849803 L76.2569185,0.912766457 C77.3946774,0.959954327 78.279601,0.984185936 78.9116893,0.984185936 C79.5693165,0.984185936 80.4184856,0.959954327 81.4604735,0.912766457 L81.4604735,1.57849803 L80.6419511,1.57849803 C79.983047,1.57849803 79.6063479,1.79913321 79.5041922,2.23657753 C79.4403449,2.52863218 79.413529,4.07435378 79.413529,6.88266974 L79.413529,11.6664995 C79.413529,12.9520502 79.4684377,14.4939457 79.5820859,16.2832588 C78.6167147,16.1314924 78.0599662,16.0269138 77.9029019,15.958045 C77.7471145,15.8942777 77.5964348,15.778221 77.4585247,15.6200779 C76.6719259,14.7528413 75.8470188,13.7848523 74.9799724,12.7250382 L67.3463891,3.31169576 Z M85.4190062,3.31169576 L85.4190062,10.6360185 C85.4190062,12.3067242 85.4560377,13.468566 85.5173311,14.1291962 C85.5684089,14.6316833 85.6488565,14.9326654 85.7637817,15.0436206 C85.8812607,15.1545759 86.2247592,15.2349228 86.7815076,15.2821107 L87.458289,15.3356753 L87.458289,16.0052329 C86.6870136,15.958045 85.991078,15.9312627 85.3653745,15.9312627 C84.9363206,15.9312627 83.9441336,15.958045 82.395198,16.0052329 L82.395198,15.3356753 L83.1613656,15.3356753 C83.6172354,15.3356753 83.9211485,15.2706326 84.0616126,15.1443731 C84.2020767,15.0168383 84.2901859,14.7681455 84.3246635,14.3919179 C84.407665,13.611405 84.4446964,12.5541416 84.4446964,11.2188524 L84.4446964,5.95039047 C84.4446964,4.96072053 84.4319269,3.97742734 84.4102189,3.01581506 C84.3987263,2.60005166 84.3425407,2.31947514 84.2480467,2.16770874 C84.1522758,2.0172177 84.0092578,1.88075548 83.8253776,1.76087278 C83.6440512,1.64099008 83.3835543,1.57849803 83.0502713,1.57849803 L82.395198,1.57849803 L82.395198,0.912766457 C83.295445,0.959954327 83.9773342,0.984185936 84.453635,0.984185936 C84.9656904,0.984185936 85.5237158,0.959954327 86.1315421,0.912766457 C86.8300316,1.76724952 87.4927666,2.60005166 88.1108085,3.40734685 C88.7301273,4.21974343 89.376262,5.03341536 90.0415509,5.85473938 L93.6719084,10.3069787 C94.9769473,11.9088156 95.9269951,13.0170929 96.5092825,13.6381873 L96.5092825,6.82910514 C96.5092825,3.97742734 96.4569277,2.42150296 96.3522181,2.15878131 C96.2526164,1.8947843 95.8439936,1.72133699 95.1301808,1.65629425 L94.3308126,1.57849803 L94.3308126,0.912766457 C95.4698484,0.959954327 96.3522181,0.984185936 96.9843064,0.984185936 C97.6457645,0.984185936 98.4911027,0.959954327 99.5330907,0.912766457 L99.5330907,1.57849803 L98.7171222,1.57849803 C98.059495,1.57849803 97.6789651,1.79913321 97.5793633,2.23657753 C97.5206238,2.52863218 97.4861462,4.07435378 97.4861462,6.88266974 L97.4861462,11.6664995 C97.4861462,12.9520502 97.5448857,14.4939457 97.6547031,16.2832588 C96.6931627,16.1314924 96.1325834,16.0269138 95.978073,15.958045 C95.8222855,15.8942777 95.6754367,15.778221 95.528588,15.6200779 C94.7445431,14.7528413 93.919636,13.7848523 93.0564204,12.7250382 L85.4190062,3.31169576 Z M105.841204,1.57849803 L105.841204,0.912766457 C107.294369,0.959954327 108.350403,0.984185936 109.006753,0.984185936 C109.701412,0.984185936 110.717861,0.959954327 112.062485,0.912766457 L112.062485,1.57849803 L111.287379,1.57849803 C110.623367,1.57849803 110.222406,1.70348212 110.088327,1.96110239 C109.955524,2.21234592 109.885292,3.36526037 109.885292,5.41857041 L109.885292,9.57492906 C109.885292,11.096419 109.968294,12.1511317 110.136851,12.7479945 C110.302854,13.3397559 110.734461,13.8447937 111.425289,14.2541803 C112.121225,14.6610163 113.049564,14.8701733 114.211585,14.8701733 C115.406807,14.8701733 116.414317,14.6482628 117.239224,14.2095431 C117.801081,13.9072857 118.216088,13.4328563 118.479139,12.7926317 C118.739636,12.1562331 118.871161,10.9408266 118.871161,9.15406427 L118.871161,5.15202271 C118.871161,3.30276833 118.789437,2.23912822 118.625988,1.97640656 C118.454877,1.70985886 117.99773,1.57849803 117.248163,1.57849803 L116.692691,1.57849803 L116.692691,0.912766457 C118.159902,0.959954327 119.092073,0.984185936 119.487926,0.984185936 C120.134061,0.984185936 120.932152,0.959954327 121.884754,0.912766457 L121.884754,1.57849803 L121.168387,1.57849803 C120.607808,1.57849803 120.247709,1.72771373 120.08426,2.03252187 C119.925919,2.33095327 119.850579,3.38694129 119.850579,5.19665989 L119.850579,9.17446983 C119.850579,10.9918405 119.759916,12.2161745 119.578589,12.852573 C119.397263,13.4838702 119.070365,14.047574 118.590233,14.5589885 C118.113932,15.0704029 117.476736,15.4734129 116.681199,15.7692936 C115.880554,16.0651743 114.947106,16.218216 113.871918,16.218216 C112.755867,16.218216 111.785388,16.0804784 110.951542,15.8177568 C110.115142,15.5512091 109.486885,15.2285461 109.064216,14.8344636 C108.641547,14.4518592 108.337634,13.9672271 108.147369,13.4086247 C107.963488,12.852573 107.872825,11.8935114 107.872825,10.5429181 L107.890702,8.52659312 L107.890702,5.29231098 C107.890702,3.29639159 107.835794,2.17918687 107.713207,1.94324752 C107.598282,1.69455469 107.226691,1.57849803 106.594602,1.57849803 L105.841204,1.57849803 Z M125.853502,3.31169576 L125.853502,10.6360185 C125.853502,12.3067242 125.884149,13.468566 125.945442,14.1291962 C125.995243,14.6316833 126.076968,14.9326654 126.194447,15.0436206 C126.310649,15.1545759 126.650317,15.2349228 127.214727,15.2821107 L127.887677,15.3356753 L127.887677,16.0052329 C127.115125,15.958045 126.419189,15.9312627 125.79604,15.9312627 C125.366986,15.9312627 124.373522,15.958045 122.823309,16.0052329 L122.823309,15.3356753 L123.589477,15.3356753 C124.049178,15.3356753 124.34926,15.2706326 124.489724,15.1443731 C124.630188,15.0168383 124.720851,14.7681455 124.752775,14.3919179 C124.837053,13.611405 124.872808,12.5541416 124.872808,11.2188524 L124.872808,5.95039047 C124.872808,4.96072053 124.861315,3.97742734 124.843438,3.01581506 C124.829392,2.60005166 124.769375,2.31947514 124.673604,2.16770874 C124.57911,2.0172177 124.439923,1.88075548 124.25732,1.76087278 C124.074716,1.64099008 123.814219,1.57849803 123.478383,1.57849803 L122.823309,1.57849803 L122.823309,0.912766457 C123.723556,0.959954327 124.407999,0.984185936 124.881746,0.984185936 C125.393802,0.984185936 125.951827,0.959954327 126.562207,0.912766457 C127.263251,1.76724952 127.922155,2.60005166 128.541474,3.40734685 C129.159516,4.21974343 129.80565,5.03341536 130.470939,5.85473938 L134.101297,10.3069787 C135.408889,11.9088156 136.356383,13.0170929 136.93484,13.6381873 L136.93484,6.82910514 C136.93484,3.97742734 136.885039,2.42150296 136.781606,2.15878131 C136.683282,1.8947843 136.273382,1.72133699 135.559569,1.65629425 L134.760201,1.57849803 L134.760201,0.912766457 C135.899237,0.959954327 136.781606,0.984185936 137.413695,0.984185936 C138.075153,0.984185936 138.923045,0.959954327 139.962479,0.912766457 L139.962479,1.57849803 L139.147787,1.57849803 C138.487606,1.57849803 138.108353,1.79913321 138.010029,2.23657753 C137.946181,2.52863218 137.914258,4.07435378 137.914258,6.88266974 L137.914258,11.6664995 C137.914258,12.9520502 137.972997,14.4939457 138.086645,16.2832588 C137.121274,16.1314924 136.558141,16.0269138 136.408738,15.958045 C136.247843,15.8942777 136.102271,15.778221 135.96053,15.6200779 C135.172654,14.7528413 134.352855,13.7848523 133.485809,12.7250382 L125.853502,3.31169576 Z M141.068314,15.3356753 L141.73488,15.3356753 C142.395061,15.3356753 142.789637,15.1775322 142.921163,14.8586952 C143.050134,14.5385829 143.117813,13.0170929 143.117813,10.2865732 L143.117813,6.68881687 C143.117813,3.86137069 143.061627,2.30162027 142.945425,2.014667 C142.831777,1.72133699 142.492109,1.57849803 141.927699,1.57849803 L141.068314,1.57849803 L141.068314,0.912766457 C142.240551,0.959954327 143.398741,0.984185936 144.550546,0.984185936 C145.503148,0.984185936 146.377856,0.959954327 147.151685,0.912766457 L147.151685,1.57849803 L146.33444,1.57849803 C145.8326,1.57849803 145.517194,1.64099008 145.392054,1.76087278 C145.263082,1.88075548 145.185188,2.18556361 145.167311,2.67274649 C145.129003,3.43157846 145.112402,4.7757951 145.112402,6.71177313 L145.112402,10.3694708 C145.112402,13.1254975 145.17625,14.6367847 145.295006,14.9173612 C145.415039,15.1928363 145.798122,15.3356753 146.450642,15.3356753 L147.151685,15.3356753 L147.151685,16.0052329 C146.283362,15.958045 145.33076,15.9312627 144.306649,15.9312627 C143.111428,15.9312627 142.027301,15.958045 141.068314,16.0052329 L141.068314,15.3356753 Z M155.094289,16.1723035 C154.775053,15.2285461 154.454539,14.340904 154.118703,13.5106525 L150.31468,4.01696312 C149.768148,2.64596419 149.452742,1.89861035 149.358248,1.76980021 C149.268862,1.64481612 148.963672,1.57849803 148.441401,1.57849803 L148.01107,1.57849803 L148.01107,0.912766457 C149.122013,0.959954327 150.069507,0.984185936 150.844613,0.984185936 C151.668243,0.984185936 152.651492,0.959954327 153.800743,0.912766457 L153.800743,1.67414912 L152.749817,1.67414912 C152.38461,1.67414912 152.153483,1.70730817 152.048773,1.77235091 C151.937679,1.84377039 151.885324,1.94579822 151.885324,2.08991252 C151.885324,2.17918687 151.904478,2.2812147 151.937679,2.39982205 L153.320611,6.03711412 L156.187355,13.3397559 L158.985144,6.37125526 C159.918592,4.00548499 160.391062,2.61535584 160.391062,2.21234592 C160.391062,1.88968291 160.202074,1.7187863 159.808774,1.70348212 L159.374613,1.67414912 L158.460319,1.57849803 L158.460319,0.912766457 C159.403982,0.959954327 160.179089,0.984185936 160.789469,0.984185936 C161.424111,0.984185936 162.222202,0.959954327 163.187573,0.912766457 L163.187573,1.57849803 L162.766181,1.57849803 C162.421406,1.57849803 162.177509,1.65884495 162.020445,1.81443739 C161.873596,1.97640656 161.596499,2.54393636 161.199368,3.50937468 L157.62392,12.2378554 C156.948415,13.8805034 156.46956,15.1902856 156.187355,16.1723035 L155.094289,16.1723035 Z M168.273649,8.80461896 L168.273649,11.4012272 L168.282588,12.8946595 C168.282588,13.8269388 168.295358,14.5118006 168.317066,14.9441435 C169.348838,15.0219397 170.457227,15.0576495 171.640956,15.0576495 C172.43394,15.0576495 173.099228,15.0257658 173.6381,14.9530709 C173.981598,14.9122598 174.351913,14.8166087 174.741381,14.6788712 C174.918877,14.0539507 175.096372,13.2798146 175.284083,12.3449846 L175.994065,12.3449846 C175.801246,13.8932569 175.710583,14.9262886 175.710583,15.4402538 L175.72846,15.9185093 C174.912492,15.9963055 174.114401,16.0358413 173.331633,16.0358413 L171.658833,16.0052329 C169.820031,15.958045 168.466468,15.9312627 167.603253,15.9312627 C166.775792,15.9312627 165.67251,15.958045 164.30107,16.0052329 L164.30107,15.3356753 L164.630522,15.3356753 C165.247287,15.3356753 165.632925,15.2731833 165.795097,15.1545759 C165.952162,15.0372439 166.058148,14.7528413 166.110503,14.3077449 C166.169242,13.8664746 166.192227,12.8768046 166.192227,11.3553147 L166.192227,5.53462707 C166.192227,4.58194222 166.171796,3.79887864 166.121995,3.18926237 C166.074748,2.58219679 166.024947,2.21744731 165.972593,2.10139065 C165.920238,1.985334 165.847452,1.89861035 165.746573,1.82974156 C165.645695,1.76980021 165.341781,1.70985886 164.829726,1.66522169 L164.015034,1.57849803 L164.015034,0.917867848 L165.163009,0.917867848 L166.285444,0.951026892 C166.917533,0.975258501 167.393834,0.984185936 167.722009,0.984185936 L171.799297,0.926795283 L173.731317,0.917867848 C174.392775,0.915317152 175.052956,0.938273414 175.72846,1.0071422 C175.461579,1.838669 175.310899,2.92654071 175.284083,4.26182991 L174.558778,4.26182991 C174.558778,3.48259238 174.5243,2.83981706 174.441299,2.31947514 C173.60873,2.0121163 172.582065,1.85397317 171.366413,1.85397317 C170.39338,1.85397317 169.375654,1.89861035 168.317066,1.97895726 C168.32345,2.64596419 168.317066,3.31169576 168.295358,3.97232595 L168.273649,5.60987259 L168.273649,7.76138441 C168.972139,7.80602159 169.591458,7.82642715 170.130329,7.82642715 C171.819729,7.82642715 172.77233,7.77031185 172.991965,7.65042915 C173.219261,7.5343725 173.331633,7.17217371 173.331633,6.56255743 L173.331633,5.87514494 L174.049276,5.87514494 C174.000752,6.94261109 173.975213,7.79454346 173.975213,8.43094204 C173.975213,9.09922431 174.000752,9.89759206 174.049276,10.8056397 L173.331633,10.8056397 L173.331633,10.1909221 C173.331633,9.51498771 173.197553,9.09667361 172.933225,8.94490722 C172.667621,8.79441617 171.726511,8.71661995 170.12139,8.71661995 C169.52761,8.71661995 168.910846,8.749779 168.273649,8.80461896 Z M185.117845,8.34421838 C185.811226,9.34536644 186.670611,10.5046576 187.694722,11.8246427 L189.735281,14.4658881 C190.096657,14.9211872 190.339277,15.1775322 190.45931,15.2400242 C190.578066,15.3037916 190.70193,15.3356753 190.832178,15.3356753 L191.105444,15.3356753 L191.105444,16.0052329 C190.520603,15.958045 190.005994,15.9312627 189.566724,15.9312627 C189.164486,15.9312627 188.74054,15.958045 188.296163,16.0052329 L184.530449,10.9344499 C183.83196,9.99961989 183.081116,9.08519548 182.277917,8.19755338 L182.391565,7.83535459 C182.800187,7.87233968 183.105378,7.8889192 183.302027,7.8889192 C184.484479,7.8889192 185.406434,7.58411106 186.076831,6.97832083 C186.744674,6.36870456 187.083064,5.55630798 187.083064,4.54240644 C187.083064,3.62543133 186.797029,2.91378723 186.230065,2.40364809 C185.664377,1.88968291 184.845855,1.63588869 183.775774,1.63588869 C183.031315,1.63588869 182.288132,1.76980021 181.537288,2.04527535 C181.454286,3.1714075 181.408316,4.37278518 181.408316,5.65195907 L181.408316,10.773756 C181.408316,13.2708871 181.472164,14.6571902 181.592197,14.9262886 C181.712229,15.1992131 182.100421,15.3356753 182.755494,15.3356753 L183.58934,15.3356753 L183.58934,16.0052329 C182.413273,15.958045 181.437686,15.9312627 180.666411,15.9312627 C180.057307,15.9312627 178.95658,15.958045 177.364228,16.0052329 L177.364228,15.3356753 L178.161043,15.3356753 C178.771423,15.3356753 179.128968,15.2017638 179.242616,14.9390421 C179.358818,14.6724944 179.411173,13.2798146 179.411173,10.7520751 L179.411173,5.65195907 C179.411173,3.46091146 179.349879,2.23657753 179.218354,1.97258052 C179.085551,1.70730817 178.660328,1.57849803 177.9363,1.57849803 L177.364228,1.57849803 L177.364228,0.900012978 C178.68076,0.957403631 179.683162,0.984185936 180.381652,0.984185936 C180.847737,0.984185936 181.519411,0.966331066 182.400503,0.926795283 C183.416952,0.897462282 184.149919,0.882158108 184.598127,0.882158108 C185.822719,0.882158108 186.748505,1.0071422 187.385701,1.26731316 C188.019066,1.52493342 188.500475,1.89861035 188.824819,2.38579322 C189.155548,2.8729761 189.321551,3.45836077 189.321551,4.13301978 C189.321551,5.13416784 188.962729,6.01288251 188.243808,6.77809122 C187.526165,7.53947389 186.481623,8.05981581 185.117845,8.34421838 Z M201.462754,1.62313521 C201.260996,2.35518488 201.158841,3.32955063 201.144794,4.54878318 L200.41055,4.54878318 L200.41055,3.70067686 C200.41055,3.14972659 200.33521,2.77732501 200.185808,2.5770954 C200.038959,2.38196718 199.650767,2.16770874 199.025064,1.94324752 C198.396806,1.72133699 197.735348,1.61165708 197.045797,1.61165708 C195.911869,1.61165708 195.019284,1.89861035 194.374426,2.46869083 C193.727015,3.04259737 193.400116,3.78102377 193.400116,4.67759331 C193.400116,5.24257241 193.531642,5.72592924 193.801078,6.13276521 C194.064128,6.54215187 194.42295,6.83165583 194.873712,7.01658127 C195.320643,7.19385462 196.277076,7.35454845 197.735348,7.48973532 C199.193621,7.62619754 200.179423,7.81749972 200.691478,8.04833768 C201.208641,8.28427703 201.617264,8.65412791 201.922454,9.17446983 C202.228921,9.68843502 202.383432,10.300602 202.383432,11.0096954 C202.383432,12.4291575 201.787098,13.6509408 200.603369,14.6788712 C199.410701,15.7068015 197.826011,16.218216 195.844191,16.218216 C195.161025,16.218216 194.475305,16.1493472 193.789585,16.009059 C193.096203,15.8713214 192.400268,15.6710918 191.701778,15.4019934 C191.826919,14.550061 191.889489,13.4596386 191.880551,12.1294508 L192.602025,12.1294508 L192.602025,12.6612709 C192.602025,13.3486833 192.640334,13.7733742 192.710566,13.934068 C192.780798,14.0960372 192.949355,14.2720352 193.209852,14.4544099 C193.601874,14.7298851 194.061575,14.9415928 194.601723,15.0882578 C195.139317,15.2285461 195.721604,15.3037916 196.340923,15.3037916 C197.682993,15.3037916 198.714766,14.9887807 199.443902,14.3587588 C200.170484,13.7338384 200.538245,12.9303693 200.538245,11.9623802 C200.538245,11.3974011 200.413104,10.9191457 200.1641,10.5225125 C199.918926,10.1335314 199.569043,9.84020141 199.124666,9.65272528 C198.677734,9.4614231 197.850273,9.3147581 196.651221,9.21273027 C195.051208,9.08519548 193.960696,8.8989947 193.391178,8.64264978 C192.817829,8.38885556 192.367067,7.98839633 192.042723,7.43872141 C191.717102,6.88904648 191.552376,6.21056143 191.552376,5.39816485 C191.552376,4.01696312 192.051661,2.88955562 193.050233,2.014667 C194.048805,1.13977837 195.427907,0.69723267 197.1952,0.69723267 C197.900074,0.69723267 198.610056,0.775028889 199.322592,0.926795283 C200.032574,1.07601098 200.743833,1.30939964 201.462754,1.62313521 Z M203.328372,15.3356753 L203.997492,15.3356753 C204.655119,15.3356753 205.050972,15.1775322 205.178667,14.8586952 C205.314023,14.5385829 205.375316,13.0170929 205.375316,10.2865732 L205.375316,6.68881687 C205.375316,3.86137069 205.321685,2.30162027 205.208036,2.014667 C205.096942,1.72133699 204.754721,1.57849803 204.19031,1.57849803 L203.328372,1.57849803 L203.328372,0.912766457 C204.505716,0.959954327 205.66646,0.984185936 206.813158,0.984185936 C207.768313,0.984185936 208.63536,0.959954327 209.414297,0.912766457 L209.414297,1.57849803 L208.599605,1.57849803 C208.090104,1.57849803 207.777252,1.64099008 207.649557,1.76087278 C207.52314,1.88075548 207.446523,2.18556361 207.428646,2.67274649 C207.394168,3.43157846 207.376291,4.7757951 207.376291,6.71177313 L207.376291,10.3694708 C207.376291,13.1254975 207.437584,14.6367847 207.557617,14.9173612 C207.678927,15.1928363 208.059457,15.3356753 208.713253,15.3356753 L209.414297,15.3356753 L209.414297,16.0052329 C208.543419,15.958045 207.593372,15.9312627 206.567984,15.9312627 C205.368932,15.9312627 204.289912,15.958045 203.328372,16.0052329 L203.328372,15.3356753 Z M217.798724,1.87437874 C217.725938,2.93546815 217.685076,4.05522356 217.685076,5.22981893 L217.685076,11.272417 C217.685076,13.51958 217.739985,14.7617688 217.85491,14.9887807 C217.968558,15.2196186 218.374627,15.3356753 219.064178,15.3356753 L219.863546,15.3356753 L219.863546,16.0052329 C218.608308,15.958045 217.548443,15.9312627 216.677566,15.9312627 C215.799027,15.9312627 214.746823,15.958045 213.51074,16.0052329 L213.51074,15.3356753 L214.404602,15.3356753 C214.873241,15.3356753 215.175877,15.2731833 215.317618,15.1545759 C215.458082,15.0257658 215.544915,14.7898264 215.580669,14.4250769 C215.657286,13.5973762 215.687932,12.52991 215.687932,11.2188524 L215.687932,5.16095015 C215.687932,3.96594921 215.663671,2.8729761 215.6177,1.87437874 L214.531019,1.87437874 C212.78288,1.87437874 211.82134,1.91646521 211.645121,1.99936283 C211.466349,2.07460835 211.346316,2.39982205 211.293961,2.94694628 L211.142005,4.36895913 L210.472885,4.36895913 L210.49587,3.10891546 C210.49587,2.59495027 210.452454,1.868002 210.370729,0.912766457 C214.188798,0.959954327 216.438777,0.984185936 217.113004,0.984185936 L222.983125,0.912766457 C222.850323,2.10776739 222.771152,3.25813115 222.753275,4.36895913 L222.09054,4.36895913 L221.988384,2.98010532 C221.943691,2.49547314 221.883675,2.21234592 221.807058,2.12562226 C221.727887,2.03889861 221.5555,1.97895726 221.28351,1.96110239 C220.507127,1.90371174 219.619649,1.87437874 218.63257,1.87437874 L217.798724,1.87437874 Z M231.227089,8.53807125 C231.656143,7.8863685 232.34314,6.75385961 233.277864,5.14054458 L235.706615,0.917867848 L237.351322,0.917867848 L237.351322,1.18696624 C236.494491,2.15495526 235.433349,3.6139532 234.178111,5.57033681 C232.927981,7.51906832 232.173306,8.82757522 231.925578,9.49458214 C231.842577,9.72669545 231.796607,10.3222829 231.796607,11.2838952 C231.796607,12.5605184 231.831084,13.5795213 231.896208,14.3294258 C231.938348,14.7298851 232.009857,14.9722012 232.112012,15.0550988 C232.216722,15.1392717 232.579375,15.2043145 233.202524,15.2617051 L234.009554,15.3484288 L234.009554,16.0052329 C232.781132,15.958045 231.815761,15.9312627 231.121102,15.9312627 L227.69761,16.0052329 L227.69761,15.3484288 L228.604242,15.3484288 C229.205683,15.3484288 229.565782,15.2221693 229.685815,14.9722012 C229.805848,14.7298851 229.869695,13.611405 229.869695,11.6244131 C229.869695,11.0454051 229.849264,10.4141079 229.812233,9.72669545 C228.90177,8.04833768 228.060263,6.59826717 227.28771,5.37648393 C226.516435,4.15215 225.862638,3.25813115 225.332706,2.69315206 C225.041562,2.38579322 224.791281,2.17536083 224.569092,2.07460835 C224.358396,1.97640656 223.994466,1.93176939 223.484965,1.93176939 L223.484965,1.2711392 C223.773555,1.21757459 224.34435,1.10406863 225.194796,0.926795283 L226.035026,0.766101454 C226.35937,0.882158108 226.622421,1.03519985 226.817794,1.22012529 C227.174062,1.54916503 227.715487,2.30799701 228.443346,3.4966212 C229.003926,4.40849491 229.930989,6.09067873 231.227089,8.53807125 Z" fill="#000" mask="url(#b)"/></g></g></svg>